<svg width="19" height="32" viewBox="0 0 19 32" fill="none" xmlns="http://www.w3.org/2000/svg">
<path d="M15.5379 22.936H11.1105V18.6015C11.1105 18.5552 11.1009 18.513 11.0961 18.4674C15.5769 17.7216 19 13.8961 19 9.30075C19 4.17219 14.7384 0 9.5 0C4.26157 0 0 4.17219 0 9.30075C0 13.8961 3.4231 17.7216 7.90388 18.4674C7.89977 18.5123 7.89018 18.5552 7.89018 18.6015V22.936H3.46214C2.57297 22.936 1.85232 23.6422 1.85232 24.512C1.85232 25.3826 2.57297 26.0888 3.46214 26.0888H7.89018V30.4239C7.89018 31.2945 8.61083 32 9.5 32C10.3892 32 11.1105 31.2938 11.1105 30.4239V26.0888H15.5379C16.4277 26.0888 17.1484 25.3826 17.1484 24.512C17.1484 23.6422 16.4277 22.936 15.5379 22.936ZM3.22033 9.30075C3.22033 5.91055 6.03717 3.15211 9.5 3.15211C12.9628 3.15211 15.7804 5.90988 15.7804 9.30008C15.7804 12.6903 12.9628 15.448 9.5 15.448C6.03786 15.4487 3.22033 12.6903 3.22033 9.30075Z" fill="#828282"/>
</svg>
