<svg width="64" height="64" viewBox="0 0 64 64" fill="none" xmlns="http://www.w3.org/2000/svg">
<g clip-path="url(#clip0)">
<path d="M32.8705 0.00818878C14.3998 -0.4543 0.092522 14.236 0 32.0208C0.218688 50.0326 14.1138 63.6382 31.2977 63.9914C49.7096 64.3698 63.8822 49.8981 64 32.2394C64.1178 14.0931 49.7096 0.428633 32.8705 0.00818878ZM54.8319 15.7917C55.2356 15.5058 55.4543 15.6908 55.7151 16.0607C57.4309 18.5498 58.701 21.2574 59.5169 24.1669C59.9459 25.7141 60.3244 27.2782 60.4421 28.8927C60.4926 29.6495 60.215 29.8093 59.5421 29.8009C57.8599 29.7672 56.1777 29.7924 54.4955 29.7924C52.8805 29.7924 51.2656 29.7672 49.6507 29.8009C48.9526 29.8177 48.6413 29.6495 48.5909 28.8759C48.389 26.0253 48.0778 23.1915 47.2619 20.4418C47.1189 19.9709 47.3713 19.8027 47.6657 19.6766C50.189 18.6423 52.5862 17.3641 54.8319 15.7917ZM39.5658 4.47331C44.9068 5.94486 49.3899 8.69456 53.1413 12.7981C51.1563 14.2697 49.0198 15.3712 46.8077 16.3046C46.4713 16.4476 46.0844 16.5485 45.8993 16.0355C44.4442 11.9152 42.2742 8.19003 39.5658 4.77602C39.5405 4.73398 39.5658 4.6583 39.5658 4.47331ZM33.7537 4.11172C33.7537 4.05286 33.8126 4.00241 33.9219 3.79219C35.7471 5.44033 37.2696 7.23983 38.6069 9.1991C40.2471 11.604 41.5087 14.194 42.6106 16.8848C42.8713 17.5323 42.7704 17.7425 42.1059 17.9107C39.6331 18.533 37.1181 18.9114 34.5696 19.0543C34.0986 19.0795 33.7201 19.0795 33.7285 18.4068C33.7537 13.6474 33.7453 8.87956 33.7537 4.11172ZM33.7285 23.2924C33.7201 22.6197 33.9724 22.4095 34.6116 22.4179C37.4125 22.4347 40.1546 21.9554 42.8545 21.2238C43.6283 21.0136 43.9648 21.1145 44.1835 22.0479C44.705 24.2762 44.9489 26.5298 45.2601 28.7918C45.3694 29.6159 45.0414 29.8345 44.2676 29.8177C42.6947 29.7672 41.1134 29.8009 39.5321 29.8009C37.8836 29.8009 36.2434 29.784 34.5948 29.8093C33.9472 29.8177 33.7201 29.6075 33.7369 28.9347C33.7705 27.0512 33.7621 25.1676 33.7285 23.2924ZM33.7285 33.8371C33.8042 33.3578 34.1659 33.1728 34.9313 33.2233C35.5453 33.2653 36.1677 33.299 36.7901 33.2821C39.3723 33.2149 41.9545 33.2905 44.5283 33.2401C45.0835 33.2317 45.3021 33.383 45.2685 33.9717C45.1087 36.4859 44.7554 38.9665 44.1582 41.4135C44.0657 41.8003 43.6704 42.019 43.2835 41.9096C40.9536 41.2538 38.5649 40.9006 36.1761 40.5895C35.7471 40.5306 34.9397 40.5558 34.3677 40.5726C34.0145 40.581 33.7285 40.3035 33.7285 39.9504V33.8371ZM30.322 28.9263C30.3388 29.599 30.0865 29.8093 29.4472 29.8009C27.7987 29.7756 26.1501 29.7924 24.5015 29.7924C22.8866 29.7924 21.2717 29.7756 19.6567 29.8009C18.8997 29.8177 18.6979 29.5654 18.782 28.7918C19.0343 26.3869 19.3876 23.9987 19.8838 21.6358C20.052 20.8286 20.296 20.4586 21.2885 20.8034C23.8623 21.6863 26.5454 22.1908 29.2622 22.3422C30.1201 22.3926 30.3388 22.6785 30.322 23.4858C30.2715 25.3021 30.2799 27.1184 30.322 28.9263ZM30.2631 39.757C30.2631 40.2699 30.1622 40.5306 29.5734 40.6063C26.68 40.9931 23.7866 41.3631 21.0109 42.3217C20.4642 42.5067 20.0016 42.5067 19.8418 41.7162C19.3455 39.2777 19.0343 36.8223 18.7315 34.3501C18.6137 33.4083 18.8829 33.198 19.7745 33.2317C21.3558 33.299 22.937 33.2485 24.5183 33.2485C26.2006 33.2485 27.8828 33.2569 29.565 33.2401C30.036 33.2317 30.3052 33.3074 30.2883 33.896C30.2463 35.8553 30.2463 37.8061 30.2631 39.757ZM30.1369 3.93514C30.4061 4.05286 30.2968 4.35558 30.2968 4.57421C30.3052 6.86143 30.3052 9.14023 30.3052 11.4275C30.3052 13.6474 30.2883 15.8589 30.322 18.0789C30.3304 18.8525 30.0697 19.0543 29.3127 18.9702C26.8482 18.6927 24.4258 18.2218 22.0455 17.5155C21.5997 17.3809 21.2969 17.3305 21.5492 16.6494C23.3155 11.9236 25.9903 7.79481 29.5734 4.24627C29.7164 4.10331 29.8678 3.81741 30.1369 3.93514ZM12.0026 11.5452C14.8456 8.87956 17.9997 6.71848 21.6838 5.36465C22.609 5.02829 23.5174 4.68353 24.737 4.42285C22.1969 7.53414 20.3212 10.7211 18.8072 14.1267C17.9997 15.943 17.9577 15.9514 16.1577 15.0853C14.711 14.3874 13.3989 13.4708 12.0615 12.5963C11.5989 12.2936 11.5989 11.9236 12.0026 11.5452ZM3.52425 28.8759C4.20555 23.9987 5.82889 19.5 8.68866 15.4637C9.13445 14.833 9.4793 14.833 10.026 15.2451C11.9101 16.683 13.9372 17.8939 16.1157 18.8357C16.7885 19.13 16.9988 19.5168 16.797 20.2316C15.9979 23.0822 15.5858 26 15.4259 28.96C15.3923 29.6159 15.0979 29.8177 14.4755 29.8009C12.7596 29.7756 11.0522 29.7924 9.33631 29.7924C7.68774 29.7924 6.03916 29.7672 4.399 29.8009C3.69247 29.8261 3.42331 29.599 3.52425 28.8759ZM8.1924 47.779C5.48403 43.6755 3.9448 39.1768 3.4906 34.2912C3.4149 33.4419 3.66724 33.198 4.51676 33.2317C6.16533 33.299 7.8139 33.2485 9.45407 33.2485C11.1699 33.2485 12.8858 33.2653 14.5932 33.2401C15.1484 33.2317 15.3502 33.3999 15.3839 33.9717C15.5858 37.0241 15.8717 40.0597 16.7465 43.0112C16.9063 43.5578 16.797 43.9194 16.1745 44.18C13.8278 45.1723 11.6578 46.4925 9.64752 48.0481C8.92417 48.6115 8.65501 48.4938 8.1924 47.779ZM21.3137 58.5088C17.6633 57.0204 14.4503 54.8593 11.6662 52.0676C11.1699 51.563 10.9849 51.294 11.6998 50.7726C13.4577 49.5113 15.2914 48.3929 17.2175 47.4175C17.7306 47.1568 17.924 47.1568 18.1511 47.737C19.2362 50.5372 20.5315 53.2364 22.2389 55.717C23.1137 56.9868 24.0389 58.2313 25.023 59.5851C23.6352 59.4674 22.466 58.9797 21.3137 58.5088ZM30.179 59.5599C29.8594 59.7281 29.6996 59.4001 29.5229 59.2319C26.394 56.1543 23.9716 52.5889 22.2389 48.5611C21.9614 47.9136 21.7259 47.2577 21.4146 46.627C21.1371 46.0552 21.2969 45.7441 21.8773 45.5843C24.4006 44.8696 26.9407 44.2473 29.5734 44.1128C30.2968 44.0791 30.3052 44.4828 30.3052 44.9957C30.2968 47.3166 30.3052 49.6374 30.3052 51.9583C30.3052 54.2791 30.3052 56.6 30.2968 58.9208C30.2968 59.131 30.4229 59.4254 30.179 59.5599ZM33.9303 59.5683C33.5182 59.4338 33.7537 58.9208 33.7453 58.5845C33.7201 56.3645 33.7369 54.153 33.7369 51.933C33.7369 49.6122 33.7621 47.2997 33.7201 44.9789C33.7032 44.2473 33.8715 43.995 34.6705 44.0203C37.2023 44.1128 39.6751 44.4996 42.1227 45.1302C42.8882 45.3237 42.9807 45.6768 42.7115 46.3579C40.8611 51.0585 38.3462 55.347 34.7715 58.9545C34.5275 59.2067 34.292 59.686 33.9303 59.5683ZM53.1581 51.2267C50.4497 54.1278 47.3292 56.4654 43.6872 58.0883C42.2237 58.7358 40.7349 59.2992 39.0779 59.5347C40.2555 57.8613 41.4751 56.2552 42.5097 54.523C43.8638 52.261 45.0835 49.9401 45.9077 47.4343C46.1433 46.7279 46.3872 46.4841 47.1862 46.8709C49.2049 47.8463 51.1647 48.9058 53.0151 50.1672C53.5702 50.5288 53.5534 50.7978 53.1581 51.2267ZM60.4337 34.7537C60.0636 39.3365 58.5076 43.5073 56.1104 47.4006C55.8328 47.8463 55.5973 47.7959 55.2272 47.5352C52.9478 45.887 50.5002 44.5332 47.8759 43.5157C47.4974 43.3728 47.2787 43.1205 47.3965 42.658C48.1199 39.7486 48.4815 36.7886 48.6413 33.8035C48.6666 33.3494 48.8769 33.2485 49.2806 33.2485C52.8385 33.2569 56.4048 33.2569 59.9627 33.2485C60.4169 33.2485 60.5599 33.4251 60.501 33.8539C60.4589 34.1482 60.4589 34.451 60.4337 34.7537Z" fill="white"/>
</g>
<defs>
<clipPath id="clip0">
<rect width="64" height="64" fill="white"/>
</clipPath>
</defs>
</svg>
