<svg width="27" height="28" viewBox="0 0 27 28" fill="none" xmlns="http://www.w3.org/2000/svg">
<path d="M27.0006 10.5559C27.0006 10.6867 27.0006 10.8172 27.0006 10.9479C26.8944 10.9507 26.7882 10.9513 26.6823 10.9569C25.9078 10.9981 25.133 11.0404 24.3585 11.0818C24.1098 11.095 24.1098 11.0941 24.0965 10.8449C24.0001 9.02818 23.9036 7.21148 23.8066 5.39505C23.8027 5.32448 23.7941 5.25391 23.7855 5.15869C23.7381 5.2091 23.7126 5.23486 23.6885 5.26175C22.8452 6.20833 22.002 7.15519 21.159 8.10177C20.6495 8.67391 20.1416 9.24802 19.6288 9.81709C19.5609 9.89243 19.5584 9.93668 19.6274 10.0106C19.7222 10.112 19.8065 10.2243 19.8885 10.3366C20.7567 11.5251 21.315 12.8559 21.6496 14.2867C21.9121 15.4098 22.0286 16.5499 21.9701 17.7026C21.8999 19.0813 21.5448 20.3936 20.9258 21.6183C18.9837 25.4625 15.9292 27.6657 11.6172 27.9811C11.5817 27.9881 11.5465 28.0009 11.511 28.0009C11.1193 28.0009 10.7276 27.9993 10.336 27.9979C10.3071 27.964 10.2675 27.9774 10.2323 27.9752C9.27009 27.9125 8.32897 27.7388 7.41474 27.4268C5.26195 26.6917 3.5258 25.3802 2.18218 23.5372C1.04202 21.9731 0.324887 20.2314 0.0726283 18.2996C0.0487885 18.1173 0.0584908 17.9302 0 17.7527C0 17.3046 0 16.8565 0 16.4084C0.0396407 16.3832 0.0249487 16.3415 0.0274435 16.3068C0.143593 14.6231 0.572433 13.0265 1.36497 11.5391C2.62377 9.17661 4.47413 7.47109 6.96428 6.51218C8.94825 5.7482 10.9946 5.59053 13.0803 5.98148C14.636 6.2733 16.0739 6.85161 17.344 7.82059C17.433 7.88865 17.4721 7.87436 17.5395 7.79847C18.8789 6.29206 20.2212 4.78818 21.562 3.28317C21.5845 3.25797 21.6252 3.24004 21.6114 3.18907C21.5615 3.18907 21.5113 3.18683 21.4614 3.18935C20.9541 3.21596 20.4468 3.24396 19.9395 3.27057C18.6067 3.33974 17.2739 3.40836 15.9411 3.47753C15.7615 3.48677 15.7617 3.48817 15.752 3.29661C15.7074 2.42537 15.6644 1.55412 15.6162 0.682877C15.6109 0.58962 15.6353 0.563295 15.726 0.558534C17.6722 0.458555 19.6182 0.356055 21.5642 0.253556C23.146 0.17038 24.728 0.0880443 26.3095 0.000667726C26.4253 -0.0057735 26.4436 0.0339941 26.4484 0.137054C26.4836 0.915322 26.5243 1.69331 26.5642 2.47158C26.6926 4.97357 26.8198 7.47529 26.952 9.977C26.9626 10.1708 26.9454 10.3668 27.0006 10.5559ZM18.9333 16.8896C18.9302 12.4488 15.3775 8.86687 10.9769 8.86771C6.60225 8.86883 3.05011 12.4653 3.05067 16.8929C3.05122 21.3231 6.6125 24.9209 10.9932 24.9178C15.3797 24.9148 18.9363 21.3186 18.9333 16.8896Z" fill="#fff"/>
</svg>
