<svg width="45" height="45" viewBox="0 0 45 45" fill="none" xmlns="http://www.w3.org/2000/svg">
<circle cx="22.5" cy="22.5" r="22.5" fill="white"/>
<path d="M35.8147 13.2611C35.7215 15.3244 34.6566 17.182 32.4803 18.2833C30.3306 19.3713 28.2141 19.1524 26.2242 17.799C26.0245 17.6597 25.8914 17.6398 25.6718 17.7592C23.4755 18.9335 21.2725 20.0945 19.0629 21.2489C18.8633 21.355 18.8034 21.4479 18.8566 21.6801C19.0163 22.3502 19.0296 23.0401 18.9232 23.7235C18.8965 23.9026 18.9431 23.9756 19.1029 24.0419C21.206 24.9442 23.3158 25.8531 25.4122 26.7686C25.5986 26.8483 25.6917 26.762 25.8115 26.6625C28.507 24.3803 32.5136 24.8049 34.6034 27.651C36.0276 29.5882 36.2406 31.7245 35.1824 33.8807C34.1242 36.0435 32.3072 37.2111 29.8714 37.2708C26.4571 37.3571 23.7084 34.6569 23.6818 31.2468C23.6818 30.8819 23.7151 30.5171 23.7949 30.1588C23.8349 29.9863 23.8083 29.8868 23.6219 29.8072C21.572 28.9381 19.5288 28.0623 17.4922 27.1667C17.266 27.0672 17.1728 27.18 17.0397 27.2994C13.6521 30.391 8.27447 28.8452 7.07649 24.4466C6.11145 20.9171 8.54734 17.328 12.2012 16.8967C13.9116 16.6911 15.4291 17.1555 16.7601 18.2236C16.9265 18.3563 17.0397 18.3629 17.226 18.2634C19.3757 17.1223 21.5321 15.9878 23.6885 14.8533C23.9014 14.7406 23.9613 14.6477 23.8948 14.3956C22.8632 10.3154 26.1643 6.50068 30.3639 6.89211C33.4254 7.17739 35.8147 9.81123 35.8147 13.2611ZM26.6435 31.2402C26.6435 32.9718 28.0278 34.3517 29.7715 34.3517C31.462 34.3517 32.8596 32.9585 32.8596 31.2667C32.8596 29.5285 31.4753 28.1287 29.7449 28.1353C28.0411 28.1353 26.6501 29.5219 26.6435 31.2402ZM16.0347 22.9207C16.0414 21.1825 14.6637 19.7827 12.9399 19.7694C11.2228 19.7561 9.81853 21.156 9.81853 22.8942C9.81187 24.5992 11.2095 25.9858 12.9266 25.9924C14.6238 25.9924 16.028 24.6058 16.0347 22.9207ZM26.6435 12.9161C26.6501 14.6278 28.0411 16.021 29.7516 16.021C31.4753 16.021 32.873 14.6145 32.8596 12.8829C32.8463 11.1713 31.4553 9.79796 29.7316 9.80459C28.0278 9.80459 26.6368 11.2044 26.6435 12.9161Z" fill="#904DC5"/>
</svg>
