<svg width="42" height="24" viewBox="0 0 42 24" fill="none" xmlns="http://www.w3.org/2000/svg"><path d="M20.5609 0.426656C24.3348 0.373783 27.7236 1.48413 30.9071 3.17609C34.7067 5.21172 38.0442 7.88184 40.9195 11.1336C41.4073 11.6887 41.433 12.1117 40.9452 12.6669C38.4549 15.4956 35.5796 17.8485 32.4218 19.8049C30.0342 21.2853 27.4669 22.3164 24.7712 22.9773C24.3605 23.083 23.8984 23.0301 23.4619 23.1359C18.6097 24.0612 14.2197 22.66 10.0093 20.3865C6.41507 18.4566 3.33432 15.8922 0.587309 12.8784C-0.18288 12.0324 -0.208553 11.7681 0.587309 10.8956C3.64239 7.59104 7.13391 4.78873 11.1646 2.80597C14.1426 1.32551 17.3004 0.373783 20.5609 0.426656ZM21.3054 21.7876C22.7688 21.7612 25.0023 21.3382 27.1588 20.5186C31.7286 18.7738 35.5796 15.8922 39.0197 12.3497C39.3535 12.006 39.3021 11.7681 38.9941 11.4508C38.1725 10.6048 37.3253 9.78529 36.4524 9.01863C32.8326 5.97839 28.9559 3.5462 24.3861 2.48873C19.8677 1.48413 15.6317 2.38298 11.5497 4.47149C8.16083 6.21632 5.20844 8.5692 2.48711 11.2922C2.02499 11.7416 1.99932 12.0324 2.48711 12.5083C5.13142 15.1784 8.00679 17.4784 11.3186 19.2232C14.1683 20.7301 17.1977 21.6819 21.3054 21.7876Z" fill="#85A7D9"/><path d="M29.2643 11.8737C29.136 16.7116 25.7985 20.6507 20.5612 20.73C15.9144 20.7829 12.0891 16.7645 12.0891 11.9794C12.0891 6.90353 16.0427 3.07019 20.6382 3.07019C25.3107 3.07019 29.136 6.87709 29.2643 11.8737ZM20.5869 19.038C24.3608 19.2231 27.5956 15.8656 27.6213 11.9265C27.6213 8.01388 24.4635 4.76215 20.6639 4.73571C16.8643 4.73571 13.7065 7.961 13.7065 11.9001C13.6808 15.8127 16.7616 19.0116 20.5869 19.038Z" fill="#85A7D9"/><path d="M25.7471 11.9528C25.7471 14.8873 23.5136 17.1873 20.6639 17.1873C17.8399 17.1873 15.5293 14.8344 15.5293 11.8999C15.5293 8.99186 17.8655 6.61255 20.6896 6.61255C23.5906 6.63899 25.8755 9.17692 25.7471 11.9528ZM24.1554 11.8735C24.1554 9.91715 22.5894 8.30451 20.6639 8.30451C18.6871 8.30451 17.1467 9.89072 17.1724 11.8999C17.1724 13.8562 18.7641 15.4689 20.6639 15.4953C22.5637 15.5482 24.1554 13.8827 24.1554 11.8735Z" fill="#85A7D9"/></svg>