<svg width="46" height="22" viewBox="0 0 46 22" fill="none" xmlns="http://www.w3.org/2000/svg"><path d="M22.9339 21.4226C18.4052 21.4512 14.1344 20.5361 10.2076 18.2197C8.00061 16.9042 6.19486 15.1312 4.56109 13.1579C3.35726 11.6995 2.0961 10.241 0.347679 9.38306C-0.196912 9.09708 0.0610521 8.61093 0.0610521 8.21056C0.0323894 7.89599 0.376341 7.6958 0.662968 7.6958C2.81267 7.7244 4.2458 6.29452 5.85091 5.17922C7.62799 3.94952 9.20444 2.46245 11.2108 1.63312C13.9051 0.489215 16.6567 -0.0541387 19.523 0.975374C20.5549 1.34714 21.4434 1.91909 22.2746 2.63403C22.7905 3.063 23.1632 3.063 23.6504 2.63403C26.7173 0.00305638 30.0995 -0.0255412 33.7397 1.23275C36.1473 2.06208 38.0391 3.69214 40.0455 5.15062C41.106 5.92275 42.1665 6.72349 43.3703 7.26684C43.8863 7.49562 44.4309 7.61001 45.0041 7.63861C45.4914 7.63861 45.864 7.86739 45.9786 8.35355C46.0646 8.83971 45.8926 9.18288 45.434 9.41166C43.5996 10.3554 42.3098 11.8996 41.0487 13.4725C38.4117 16.7612 35.0868 18.9918 31.1027 20.2787C28.4657 21.1653 25.7141 21.4512 22.9339 21.4226ZM22.9339 19.5638C26.918 19.7068 30.5295 18.6773 32.9658 17.5906C36.2907 16.1035 38.6983 13.5297 40.9627 10.7557C41.0487 10.6699 41.1633 10.6128 41.106 10.4698C41.02 10.2696 40.848 10.3554 40.7334 10.384C40.3321 10.4698 39.9308 10.5842 39.5009 10.6414C35.5168 11.1847 31.504 11.6423 27.4912 11.8425C20.8415 12.157 14.2204 11.7567 7.65666 10.7843C6.82544 10.67 6.02289 10.527 5.19167 10.4126C5.07702 10.384 4.9337 10.2982 4.84772 10.4412C4.76173 10.5842 4.87638 10.67 4.99103 10.7843C5.33498 11.1561 5.65027 11.5565 5.96556 11.9568C7.77131 14.1875 9.83502 16.0749 12.4147 17.3618C15.7109 18.9632 19.2364 19.6496 22.9339 19.5638ZM22.2746 10.1266C28.953 10.1266 34.8862 9.58324 40.762 8.52513C40.9053 8.49653 41.0773 8.52513 41.1346 8.35355C41.192 8.12477 40.9913 8.09617 40.848 8.01038C40.1028 7.49562 39.3576 7.00946 38.641 6.43751C36.6059 4.83605 34.5422 3.26318 31.9626 2.60544C30.3288 2.20507 28.695 2.09068 27.0613 2.69123C25.8001 3.14879 24.8829 4.06391 23.7937 4.75025C23.1918 5.15062 22.6759 5.17922 22.1313 4.75025C21.902 4.57867 21.644 4.40708 21.4147 4.2355C20.2396 3.34897 19.0644 2.49104 17.5453 2.31946C15.1663 2.03348 12.9592 2.69123 10.9242 3.83513C8.7745 5.03623 7.02608 6.83788 4.90504 8.09617C4.79039 8.15336 4.7044 8.26775 4.76173 8.38214C4.81905 8.52513 4.96237 8.49653 5.07702 8.52513C7.59933 8.98269 10.1503 9.35446 12.7299 9.61184C16.0835 9.95501 19.523 10.1552 22.2746 10.1266Z" fill="#EE74AC"/></svg>