<svg width="26" height="37" viewBox="0 0 26 37" fill="none" xmlns="http://www.w3.org/2000/svg"><path d="M25.037 28.4511C25.037 29.9099 24.4932 31.1742 23.5044 32.244C22.4662 33.3624 21.1807 34.0918 19.7964 34.6996C18.8571 35.1129 17.8683 35.429 16.8795 35.6965C15.8165 35.9882 14.7288 36.207 13.6412 36.3286C13.2951 36.3772 12.949 36.4502 12.6029 36.4259C12.1333 36.4016 11.7625 36.0855 11.7625 35.5992C11.7377 35.0643 12.0591 34.7239 12.5535 34.651C13.7648 34.5051 14.976 34.2863 16.1873 33.9945C17.3986 33.6785 18.5851 33.2894 19.7223 32.7302C20.8347 32.1954 21.8482 31.5389 22.565 30.5177C23.2819 29.4966 23.3561 28.3782 23.0594 27.1868C22.6886 25.7523 21.8482 24.6096 20.9583 23.4669C19.1537 21.1814 17.1019 19.0905 15.0502 16.9752C12.9984 14.8357 10.922 12.6961 9.01855 10.4349C8.00503 9.21928 7.01624 7.9793 6.2252 6.61776C5.75553 5.81542 5.48361 4.91583 5.31057 3.99192C5.13753 3.11664 5.08809 2.24136 5.08809 1.36608C5.08809 1.2202 5.06337 1.09864 5.31057 1.12295C5.58249 1.14726 5.70609 0.904132 5.60721 0.685312C5.53305 0.563745 5.55777 0.539432 5.68137 0.490806C6.24992 0.247673 6.89264 0.709625 6.89264 1.29314C6.89264 1.77941 6.94208 2.24136 6.9668 2.72763C7.06568 4.1378 7.48592 5.40209 8.30167 6.56913C9.58711 8.41694 11.0703 10.1189 12.5782 11.7722C14.1603 13.4984 15.7918 15.1517 17.3986 16.8293C19.2031 18.7015 20.983 20.5736 22.5898 22.6402C23.3314 23.6128 24.0235 24.6096 24.4932 25.7523C24.8393 26.6033 25.0618 27.5029 25.037 28.4511Z" fill="#828282"/><path d="M5.26105 35.7207C4.51945 35.6964 3.8273 35.356 3.15986 34.9427C2.07218 34.2862 1.23171 33.4109 0.687871 32.2682C0.317073 31.4659 0.0698742 30.6635 0.0204344 29.7882C-0.127885 27.7946 0.539552 26.0683 1.75083 24.5366C2.44298 23.6856 3.25874 22.9805 4.27225 22.4943C5.08801 22.1052 5.92848 21.9351 6.8184 22.0566C7.21392 22.1052 7.56 22.5186 7.53528 22.9562C7.51056 23.3695 7.11504 23.8072 6.6948 23.7829C4.79137 23.6856 3.7037 24.8526 2.73962 26.1899C2.17106 26.9922 1.84971 27.9404 1.77555 28.9373C1.67667 30.2016 2.04746 31.3443 2.81378 32.3411C3.38234 33.0949 4.17337 33.5811 5.06329 33.9215C5.40937 34.0431 5.78017 33.9215 6.0768 33.5325C6.5712 32.9247 7.01616 32.2925 7.51056 31.6604C8.30159 30.6635 9.26567 29.8855 10.4769 29.4965C11.5893 29.1318 12.7264 29.0588 13.8883 29.2047C14.5804 29.302 15.2479 29.4235 15.9153 29.5937C16.4592 29.7396 16.7311 30.1529 16.5828 30.7122C16.4592 31.1741 15.9895 31.4416 15.4704 31.2957C14.4568 31.0282 13.4186 30.8823 12.3804 30.931C10.823 31.0039 9.66119 31.7576 8.74655 32.949C8.27687 33.5568 7.88135 34.2133 7.33752 34.7725C6.8184 35.3317 6.17568 35.7207 5.26105 35.7207Z" fill="#828282"/></svg>