<svg width="76" height="67" viewBox="0 0 76 67" fill="none" xmlns="http://www.w3.org/2000/svg">
<g clip-path="url(#clip0)">
<path d="M24.7559 51.9014C25.076 53.6558 26.0786 54.9325 27.698 55.6181C29.2231 56.2612 30.8801 56.1998 32.4382 55.8357C34.6507 55.3155 36.1194 53.3626 36.1241 51.0692C36.1335 43.3852 36.1288 35.7011 36.1288 28.0124C36.1288 20.4229 36.1288 12.8335 36.1335 5.24874C36.1335 4.51108 36.0582 3.79233 35.7663 3.1114C35.1497 1.68336 34.1094 0.723443 32.6218 0.236393C31.638 -0.0851536 30.6353 0.0567054 29.6421 0.00469046C29.049 -0.02841 28.4888 0.118178 27.9522 0.302594C26.0221 0.97406 24.657 2.95063 24.657 5.01704C24.657 11.3629 24.657 17.7087 24.657 24.0545C24.657 31.644 24.657 39.2334 24.657 46.8182C24.657 47.2863 24.6523 47.7544 24.6664 48.2226C24.69 49.452 24.5346 50.6862 24.7559 51.9014ZM28.8418 3.90581C28.9831 3.80651 29.1149 3.74031 29.2843 3.71194C30.0328 3.57481 30.786 3.57008 31.5297 3.71194C32.0993 3.8207 32.4994 4.32666 32.5512 4.90828C32.5653 5.0596 32.5606 5.21092 32.5606 5.36223C32.5606 12.9233 32.5606 20.4797 32.5606 28.0408C32.5606 35.6302 32.5606 43.2149 32.5653 50.8044C32.5653 51.5231 32.297 52.0386 31.6286 52.327C31.4827 52.3885 31.3461 52.4169 31.1908 52.4169C30.7389 52.4169 30.2823 52.4169 29.8304 52.4169C28.8607 52.4169 28.3099 51.8731 28.2958 50.899C28.2911 50.5254 28.2911 50.1518 28.2911 49.783C28.2911 34.9682 28.2911 20.1534 28.2864 5.33386C28.2817 4.77115 28.3382 4.26046 28.8418 3.90581Z" fill="white"/>
<path d="M39.9606 51.8919C40.2901 53.6841 41.3069 54.923 42.945 55.637C44.249 56.2044 45.6423 56.02 47.0028 55.9633C47.7042 55.9349 48.3585 55.6654 48.9516 55.2871C50.4062 54.3555 51.1829 53.041 51.31 51.3718H51.3523V43.7871H51.3382C51.3382 34.5757 51.3382 25.3643 51.3382 16.1529C51.3382 15.8456 51.3006 15.5477 51.23 15.2545C50.8251 13.5427 49.8554 12.3133 48.2078 11.6465C46.8051 11.0791 45.3552 11.2446 43.91 11.3675C43.4676 11.4054 43.058 11.5614 42.672 11.7647C40.822 12.7436 39.8759 14.2804 39.8759 16.3846C39.8759 27.653 39.8759 38.926 39.8759 50.1944C39.8853 50.7665 39.8617 51.3292 39.9606 51.8919ZM44.1784 15.0606C44.3619 14.9471 44.5502 14.8998 44.7621 14.8998C45.2563 14.9046 45.7553 14.9377 46.2449 14.8904C47.1393 14.8053 47.7465 15.5713 47.7418 16.4035C47.723 19.5481 47.7324 22.6926 47.7324 25.8372C47.7324 33.2989 47.7371 40.7607 47.7183 48.2225C47.7183 48.2651 47.723 48.2982 47.7277 48.336V50.3126C47.7089 50.3882 47.7183 50.4781 47.7277 50.5679V51.107C47.6194 51.9723 46.9604 52.4972 46.0048 52.4121C45.6376 52.379 45.2658 52.3979 44.8939 52.4121C44.6491 52.4215 44.4373 52.3553 44.2254 52.2419C43.7359 51.9818 43.5052 51.5562 43.4487 51.0219C43.4393 50.9273 43.444 50.828 43.444 50.7334C43.444 39.3421 43.444 27.9509 43.4393 16.5549C43.444 15.9307 43.6088 15.4058 44.1784 15.0606Z" fill="white"/>
<path d="M75.5104 60.744C74.4513 59.6422 73.3686 58.5641 72.2718 57.5001C71.6645 56.9138 70.7136 56.8712 70.0358 57.3394C69.3203 57.8311 69.0896 58.635 69.3673 59.4814C69.4521 59.732 69.6686 59.8975 69.7392 60.2049H65.2437C65.0884 60.1813 64.933 60.1813 64.7824 60.2049H62.7865C62.7582 60.1954 62.73 60.1954 62.7018 60.2049H6.28899C6.4208 60.011 6.50082 59.8313 6.54319 59.6895C6.56202 59.6517 6.57614 59.6138 6.59497 59.5713C6.9339 58.7579 6.71736 57.8831 6.05363 57.3866C5.35694 56.8712 4.40606 56.8712 3.74703 57.4954C2.62668 58.5593 1.52987 59.6564 0.466016 60.7818C-0.188305 61.4722 -0.150646 62.5976 0.49426 63.2596C1.544 64.3425 2.60786 65.4158 3.67642 66.4798C4.34486 67.1418 5.38048 67.1749 6.10541 66.5838C6.72678 66.0779 6.91036 65.2031 6.59968 64.4654L6.60439 64.4607C6.60439 64.4607 6.51965 64.2195 6.27487 63.8365H6.49612C6.53848 63.8412 6.58556 63.8365 6.63734 63.8365C18.0432 63.8365 29.4491 63.8365 40.8503 63.8365H56.2856C56.3468 63.8365 56.4033 63.8412 56.4598 63.8365H60.3104C60.4234 63.8554 60.5364 63.8601 60.6682 63.8412C60.6823 63.8365 60.7011 63.8365 60.7153 63.8365H61.8262C61.8356 63.8365 61.845 63.8412 61.8591 63.8365C64.3305 63.8318 66.8018 63.8365 69.2779 63.8365C69.4238 63.8365 69.5698 63.8365 69.7628 63.8365C69.7063 63.9405 69.6827 64.002 69.6404 64.0493C68.9625 64.9099 69.212 65.9786 69.8428 66.5365C70.5865 67.1938 71.7116 67.1134 72.4083 66.3568C73.3733 65.3118 74.4042 64.333 75.4163 63.3305C76.1412 62.6212 76.2118 61.4722 75.5104 60.744Z" fill="white"/>
<path d="M9.46173 30.5564V36.2024C9.46173 36.2213 9.46173 36.2355 9.46173 36.2544V39.7772H9.46644C9.46644 43.3852 9.46644 46.9884 9.46644 50.5963C9.46644 51.3529 9.5041 52.1142 9.81008 52.8235C10.0454 53.3673 10.3326 53.8544 10.6951 54.2847C10.6951 54.2847 10.7092 54.2989 10.7327 54.3272C11.0575 54.6961 11.4388 55.0223 11.9095 55.2919C11.9849 55.3344 12.0602 55.3675 12.1355 55.4006C13.35 56.1005 15.2565 56.701 17.5725 55.7553C17.9679 55.6134 18.3398 55.4243 18.6787 55.202C18.6834 55.1973 18.6928 55.1926 18.6975 55.1926C20.0721 54.2752 20.9288 52.7431 20.9288 51.0124C20.9241 42.099 20.9241 33.1855 20.9288 24.2768C20.9288 23.9032 20.8864 23.5391 20.8017 23.1703C20.3592 21.2363 18.6316 19.4772 16.4145 19.3684C15.7978 19.3353 15.1812 19.3495 14.5645 19.3353C13.703 19.3164 12.8746 19.463 12.1167 19.8933C10.6809 20.7066 9.77713 21.8983 9.54176 23.5675C9.37229 24.778 9.47115 25.9933 9.46173 27.2038C9.46173 28.315 9.46173 29.4357 9.46173 30.5564ZM13.044 31.592C13.044 29.2466 13.044 26.9012 13.044 24.5605C13.044 23.4918 13.6042 22.9196 14.6586 22.9196C15.0729 22.9196 15.4824 22.9196 15.892 22.9196C16.7205 22.9291 17.3089 23.5013 17.3371 24.3288C17.3418 24.4659 17.3371 24.603 17.3371 24.7402C17.3371 33.4172 17.3371 42.0895 17.3418 50.7666C17.3418 50.8942 17.3371 51.0219 17.3183 51.1401C17.2712 51.4475 16.9888 52.3648 15.28 52.4121C15.1623 52.4169 15.0493 52.4169 14.9458 52.4169C14.9317 52.4169 14.9175 52.4169 14.9034 52.4169C14.5598 52.4121 14.2915 52.3838 14.0843 52.3412C13.4912 52.1662 13.077 51.6508 13.0487 50.9746C13.044 50.8659 13.0487 50.7524 13.0487 50.6436C13.0487 47.0215 13.0487 43.3994 13.044 39.7772H13.0487V33.9846C13.0581 33.8853 13.0817 33.7719 13.0487 33.682V32.6323C13.044 32.2871 13.044 31.9371 13.044 31.592Z" fill="white"/>
<path d="M55.0523 50.5445C55.0429 51.4524 55.1605 52.3272 55.5513 53.1499C56.1067 54.3226 56.9823 55.1501 58.1779 55.6419C59.4819 56.181 60.8517 56.0013 62.2027 55.9587C62.7111 55.9446 63.2007 55.7838 63.6526 55.5521C65.5355 54.6016 66.5241 53.0506 66.5382 50.9417C66.557 47.0973 66.5617 43.2482 66.5617 39.4038V32.396H66.5429C66.5052 31.5543 66.3828 30.7315 65.9403 29.956C65.2672 28.7786 64.3116 27.9889 63.0218 27.5633C62.038 27.237 61.0353 27.3931 60.0421 27.3316C59.4489 27.2985 58.8888 27.4451 58.3521 27.6295C56.4315 28.2915 55.0617 30.2539 55.0617 32.2967C55.057 35.8573 55.0664 39.4133 55.0523 42.9739C55.0523 43.0732 55.0523 43.1725 55.0617 43.2671V45.1396C55.0617 45.1633 55.057 45.1869 55.057 45.2106C55.057 45.9813 55.057 46.7568 55.0617 47.5276V47.9863C55.0617 48.8374 55.0617 49.6933 55.0523 50.5445ZM58.6769 32.6466C58.6769 31.4502 59.1759 30.9395 60.3669 30.949C60.8611 30.9537 61.3554 30.8875 61.845 31.0057C62.5464 31.176 62.9606 31.7009 62.9606 32.4338C62.9653 35.5216 62.9606 38.6141 62.9606 41.7019C62.9606 44.6951 62.9276 47.6884 62.9794 50.6816C62.9983 51.6699 62.3345 52.5399 61.2518 52.4217C60.8847 52.3839 60.5128 52.417 60.1409 52.417C59.3171 52.417 58.7475 51.8827 58.6816 51.0646C58.6722 50.9558 58.6769 50.8424 58.6769 50.7336C58.6769 44.6999 58.6769 38.6709 58.6769 32.6466Z" fill="white"/>
</g>
<defs>
<clipPath id="clip0">
<rect width="76" height="67" fill="white"/>
</clipPath>
</defs>
</svg>
