<svg width="71" height="85" viewBox="0 0 71 85" fill="none" xmlns="http://www.w3.org/2000/svg">
<path d="M51.3418 64.015C51.3279 64.0311 51.3256 64.0309 51.345 64.0142L51.3438 64.0127M51.3418 64.015L51.3438 64.0127M51.3418 64.015L51.0433 63.6672L51.0414 63.665L50.3659 62.8779L51.0441 63.6649L51.0461 63.6672L51.3438 64.0127M51.3418 64.015L51.3438 64.0127M50.0948 20.8252C52.6928 20.8228 55.2907 20.8228 57.8887 20.8228C60.4867 20.8228 63.0846 20.8228 65.6826 20.8205C66.2854 20.8158 66.8694 20.9048 67.4488 21.0687C69.43 21.6214 70.8692 23.3967 70.986 25.4483C71 25.6356 71 25.823 71 26.0103C71 32.8817 71 39.7578 71.0047 46.6292L50.0948 20.8252ZM50.0948 20.8252C49.2678 20.8252 48.3566 20.858 47.7492 21.3919L50.0948 20.8252ZM69.4884 25.5335L69.4892 25.5468L69.4902 25.5602C69.4993 25.6824 69.5 25.8137 69.5 26.0103C69.5 32.8816 69.5 39.7581 69.5047 46.6301C69.5045 47.4635 69.3249 48.1012 69.024 48.6018C68.7242 49.1005 68.2501 49.553 67.5179 49.9333C67.1284 50.1333 66.7583 50.2349 66.4475 50.2448L66.4438 50.245C66.045 50.2587 65.2596 50.3549 64.7636 51.0819C64.5481 51.3977 64.4758 51.7156 64.446 51.9209C64.4172 52.1201 64.4162 52.3108 64.4162 52.4232L64.4162 52.4272C64.4274 56.6661 64.4267 60.9046 64.4259 65.1456C64.4257 66.2069 64.4256 67.2683 64.4256 68.33C64.4256 68.6635 64.4058 68.9737 64.3591 69.2762C64.201 70.294 63.2831 71.0862 62.251 71.0972L62.2498 71.0972C59.3769 71.1299 56.5155 71.1438 53.6588 71.0926L53.6562 71.0926C52.5029 71.074 51.5026 70.0724 51.4967 68.7868L51.4967 68.7855C51.4928 68.0819 51.4939 67.3566 51.495 66.6252C51.4963 65.7124 51.4977 64.79 51.4895 63.8881C52.9414 62.6009 54.0046 61.03 54.5761 59.1561L54.5943 59.0964L54.6075 59.0354C54.6871 58.6671 54.9405 57.382 55.042 54.8487L55.0432 54.8187V54.7886L55.0433 54.744L55.0436 54.7227L55.0493 54.6746L55.0515 54.6149C55.0756 53.9681 55.0899 53.2515 55.0899 52.4467V52.4466V52.4465V52.4465V52.4464V52.4464V52.4463V52.4463V52.4462V52.4462V52.4461V52.4461V52.446V52.446V52.4459V52.4458V52.4458V52.4457V52.4457V52.4456V52.4456V52.4455V52.4455V52.4454V52.4454V52.4453V52.4453V52.4452V52.4452V52.4451V52.4451V52.445V52.445V52.4449V52.4448V52.4448V52.4447V52.4447V52.4446V52.4446V52.4445V52.4445V52.4444V52.4444V52.4443V52.4443V52.4442V52.4442V52.4441V52.4441V52.444V52.444V52.4439V52.4439V52.4438V52.4438V52.4437V52.4437V52.4436V52.4436V52.4435V52.4435V52.4434V52.4434V52.4433V52.4433V52.4432V52.4432V52.4431V52.4431V52.4431V52.443V52.443V52.4429V52.4429V52.4428V52.4428V52.4427V52.4427V52.4426V52.4426V52.4425V52.4425V52.4424V52.4424V52.4423V52.4423V52.4422V52.4422V52.4421V52.4421V52.4421V52.442V52.442V52.4419V52.4419V52.4418V52.4418V52.4417V52.4417V52.4416V52.4416V52.4415V52.4415V52.4415V52.4414V52.4414V52.4413V52.4413V52.4412V52.4412V52.4411V52.4411V52.441V52.441V52.4409V52.4409V52.4409V52.4408V52.4408V52.4407V52.4407V52.4406V52.4406V52.4405V52.4405V52.4405V52.4404V52.4404V52.4403V52.4403V52.4402V52.4402V52.4401V52.4401V52.4401V52.44V52.44V52.4399V52.4399V52.4398V52.4398V52.4397V52.4397V52.4397V52.4396V52.4396V52.4395V52.4395V52.4394V52.4394V52.4394V52.4393V52.4393V52.4392V52.4392V52.4391V52.4391V52.439V52.439V52.439V52.4389V52.4389V52.4388V52.4388V52.4387V52.4387V52.4387V52.4386V52.4386V52.4385V52.4385V52.4384V52.4384V52.4384V52.4383V52.4383V52.4382V52.4382V52.4381V52.4381V52.4381V52.438V52.438V52.4379V52.4379V52.4379V52.4378V52.4378V52.4377V52.4377V52.4376V52.4376V52.4376V52.4375V52.4375V52.4374V52.4374V52.4373V52.4373V52.4373V52.4372V52.4372V52.4371V52.4371V52.4371V52.437V52.437V52.4369V52.4369V52.4368V52.4368V52.4368V52.4367V52.4367V52.4366V52.4366V52.4366V52.4365V52.4365V52.4364V52.4364V52.4363V52.4363V52.4363V52.4362V52.4362V52.4361V52.4361V52.4361V52.436V52.436V52.4359V52.4359V52.4359V52.4358V52.4358V52.4357V52.4357V52.4356V52.4356V52.4356V52.4355V52.4355V52.4354V52.4354V52.4354V52.4353V52.4353V52.4352V52.4352V52.4352V52.4351V52.4351V52.435V52.435V52.4349V52.4349V52.4349V52.4348V52.4348V52.4347V52.4347V52.4347V52.4346V52.4346V52.4345V52.4345V52.4345V52.4344V52.4344V52.4343V52.4343V52.4342V52.4342V52.4342V52.4341V52.4341V52.434V52.434V52.434V52.4339V52.4339V52.4338V52.4338V52.4338V52.4337V52.4337V52.4336V52.4336V52.4335V52.4335V52.4335V52.4334V52.4334V52.4333V52.4333V52.4333V52.4332V52.4332V52.4331V52.4331V52.433V52.433V52.433V52.4329V52.4329V52.4328V52.4328V52.4328V52.4327V52.4327V52.4326V52.4326V52.4325V52.4325V52.4325V52.4324V52.4324V52.4323V52.4323V52.4323V52.4322V52.4322V52.4321V52.4321V52.432V52.432V52.432V52.4319V52.4319V52.4318V52.4318V52.4317V52.4317V52.4317V52.4316V52.4316V52.4315V52.4315V52.4314V52.4314V52.4314V52.4313V52.4313V52.4312V52.4312V52.4311V52.4311V52.4311V52.431V52.431V52.4309V52.4309V52.4308V52.4308V52.4308V52.4307V52.4307V52.4306V52.4306V52.4305V52.4305V52.4305V52.4304V52.4304V52.4303V52.4303V52.4302V52.4302V52.4301V52.4301V52.4301V52.43V52.43V52.4299V52.4299V52.4298V52.4298V52.4298V52.4297V52.4297V52.4296V52.4296V52.4295V52.4295V52.4294V52.4294V52.4293V52.4293V52.4293V52.4292V52.4292V52.4291V52.4291V52.429V52.429V52.4289V52.4289V52.4289V52.4288V52.4288V52.4287V52.4287V52.4286V52.4286V52.4285V52.4285V52.4284V52.4284V52.4284V52.4283V52.4283V52.4282V52.4282V52.4281V52.4281V52.428V52.428V52.4279V52.4279V52.4278V52.4278V52.4277V52.4277V52.4277V52.4276V52.4276V52.4275V52.4275V52.4274V52.4274V52.4273V52.4273V52.4272V52.4272V52.4271V52.4271V52.427V52.427V52.4269V52.4269V52.4268V52.4268V52.4267V52.4267V52.4266V52.4266V52.4265V52.4265V52.4264V52.4264V52.4264V52.4263V52.4263V52.4262V52.4262V52.4261V52.4261V52.426V52.426V52.4259V52.4259V52.4258V52.4258V52.4257V52.4257V52.4256V52.4256V52.4255V52.4255V52.4254V52.4254V52.4253V52.4252V52.4252V52.4251V52.4251V52.425V52.425V52.4249V52.4249V52.4248V52.4248V52.4247V52.4247V52.4246V52.4246V52.4245V52.4245V52.4244V52.4244V52.4243V52.4243V52.4242V52.4242V52.4241V52.424V52.424V52.4239V52.4239V52.4238V52.4238V52.4237V52.4237V52.4236V52.4236V52.4235V52.4235V52.4234V52.4233V52.4233L55.0899 52.4232L55.0899 52.4211C55.0806 45.8695 55.0806 39.3177 55.0806 32.7646C55.0806 28.715 53.3266 25.5226 49.8805 23.3864L49.8793 23.3856C49.4447 23.1169 48.9976 22.8997 48.544 22.7195C48.6116 22.6412 48.6765 22.5747 48.7409 22.5173C48.7723 22.4903 48.8648 22.4289 49.1112 22.3835C49.3705 22.3358 49.683 22.3252 50.0948 22.3252L50.0962 22.3252C52.6933 22.3228 55.2906 22.3228 57.8887 22.3228H57.8895C60.4871 22.3228 63.0855 22.3228 65.6839 22.3205V22.3205L65.6942 22.3204C66.1383 22.317 66.5806 22.382 67.0404 22.5121L67.0458 22.5136C68.4139 22.8952 69.4084 24.1278 69.4884 25.5335ZM65.9162 52.4232C65.9162 51.9876 65.9536 51.7628 66.4956 51.7441L65.8415 69.5057C65.9022 69.1122 65.9256 68.7235 65.9256 68.33C65.9256 67.2689 65.9257 66.2079 65.9259 65.1468C65.9267 60.9056 65.9274 56.6644 65.9162 52.4232Z" stroke="white" stroke-width="3" stroke-linecap="round"/>
<path d="M1.49999 45.5691H1.51868V47.0691V47.0696V47.07V47.0705V47.071V47.0714V47.0719V47.0724V47.0728V47.0733V47.0738V47.0742V47.0747V47.0752V47.0756V47.0761V47.0765V47.077V47.0775V47.0779V47.0784V47.0789V47.0793V47.0798V47.0803V47.0807V47.0812V47.0817V47.0821V47.0826V47.083V47.0835V47.084V47.0844V47.0849V47.0854V47.0858V47.0863V47.0868V47.0872V47.0877V47.0881V47.0886V47.0891V47.0895V47.09V47.0905V47.0909V47.0914V47.0918V47.0923V47.0928V47.0932V47.0937V47.0941V47.0946V47.0951V47.0955V47.096V47.0965V47.0969V47.0974V47.0978V47.0983V47.0988V47.0992V47.0997V47.1001V47.1006V47.1011V47.1015V47.102V47.1024V47.1029V47.1034V47.1038V47.1043V47.1047V47.1052V47.1057V47.1061V47.1066V47.107V47.1075V47.108V47.1084V47.1089V47.1093V47.1098V47.1102V47.1107V47.1112V47.1116V47.1121V47.1125V47.113V47.1135V47.1139V47.1144V47.1148V47.1153V47.1157V47.1162V47.1167V47.1171V47.1176V47.118V47.1185V47.1189V47.1194V47.1199V47.1203V47.1208V47.1212V47.1217V47.1222V47.1226V47.1231V47.1235V47.124V47.1244V47.1249V47.1253V47.1258V47.1263V47.1267V47.1272V47.1276V47.1281V47.1285V47.129V47.1295V47.1299V47.1304V47.1308V47.1313V47.1317V47.1322V47.1326V47.1331V47.1336V47.134V47.1345V47.1349V47.1354V47.1358V47.1363V47.1367V47.1372V47.1377V47.1381V47.1386V47.139V47.1395V47.1399V47.1404V47.1408V47.1413V47.1418V47.1422V47.1427V47.1431V47.1436V47.144V47.1445V47.1449V47.1454V47.1458V47.1463V47.1468V47.1472V47.1477V47.1481V47.1486V47.149V47.1495V47.1499V47.1504V47.1508V47.1513V47.1518V47.1522V47.1527V47.1531V47.1536V47.154V47.1545V47.1549V47.1554V47.1558V47.1563V47.1567V47.1572V47.1576V47.1581V47.1586V47.159V47.1595V47.1599V47.1604V47.1608V47.1613V47.1617V47.1622V47.1626V47.1631V47.1635V47.164V47.1645V47.1649V47.1654V47.1658V47.1663V47.1667V47.1672V47.1676V47.1681V47.1685V47.169V47.1694V47.1699V47.1703V47.1708V47.1713V47.1717V47.1722V47.1726V47.1731V47.1735V47.174V47.1744V47.1749V47.1753V47.1758V47.1762V47.1767V47.1771V47.1776V47.178V47.1785V47.179V47.1794V47.1799V47.1803V47.1808V47.1812V47.1817V47.1821V47.1826V47.183V47.1835V47.1839V47.1844V47.1848V47.1853V47.1857V47.1862V47.1866V47.1871V47.1876V47.188V47.1885V47.1889V47.1894V47.1898V47.1903V47.1907V47.1912V47.1916V47.1921V47.1925V47.193V47.1934V47.1939V47.1943V47.1948V47.1953V47.1957V47.1962V47.1966V47.1971V47.1975V47.198V47.1984V47.1989V47.1993V47.1998V47.2002V47.2007V47.2011V47.2016V47.202V47.2025V47.203V47.2034V47.2039V47.2043V47.2048V47.2052V47.2057V47.2061V47.2066V47.207V47.2075V47.2079V47.2084V47.2088V47.2093V47.2098V47.2102V47.2107V47.2111V47.2116V47.212V47.2125V47.2129V47.2134V47.2138V47.2143V47.2147V47.2152V47.2157V47.2161V47.2166V47.217V47.2175V47.2179V47.2184V47.2188V47.2193V47.2197V47.2202V47.2206V47.2211V47.2216V47.222V47.2225V47.2229V47.2234V47.2238V47.2243V47.2247V47.2252V47.2256V47.2261V47.2265V47.227V47.2275V47.2279V47.2284V47.2288V47.2293V47.2297V47.2302V47.2306V47.2311V47.2316V47.232V47.2325V47.2329V47.2334V47.2338V47.2343V47.2347V47.2352V47.2356V47.2361V47.2366V47.237V47.2375V47.2379V47.2384V47.2388V47.2393V47.2397V47.2402V47.2407V47.2411V47.2416V47.242V47.2425V47.2429V47.2434V47.2439V47.2443V47.2448V47.2452V47.2457V47.2461V47.2466V47.247V47.2475V47.248V47.2484V47.2489V47.2493V47.2498V47.2502V47.2507V47.2512V47.2516V47.2521V47.2525V47.253V47.2534V47.2539V47.2544V47.2548V47.2553V47.2557V47.2562V47.2566V47.2571V47.2576V47.258V47.2585V47.2589V47.2594V47.2599V47.2603V47.2608V47.2612V47.2617V47.2621V47.2626V47.2631V47.2635V47.264V47.2644V47.2649V47.2654V47.2658V47.2663V47.2667V47.2672V47.2677V47.2681V47.2686V47.269V47.2695V47.27V47.2704V47.2709V47.2713V47.2718V47.2723V47.2727V47.2732V47.2736V47.2741V47.2746V47.275V47.2755V47.2759V47.2764V47.2769V47.2773V47.2778V47.2782V47.2787V47.2792V47.2796V47.2801V47.2806V47.281V47.2815V47.2819V47.2824V47.2829V47.2833V47.2838V47.2843V47.2847V47.2852V47.2856V47.2861V47.2866V47.287V47.2875V47.288V47.2884V47.2889V47.2893V47.2898V47.2903V47.2907V47.2912V47.2913C1.54959 49.0427 2.95018 50.5029 4.71323 50.6169L4.71765 50.6171C5.01157 50.637 5.70675 50.7152 6.19113 51.3305C6.60672 51.8585 6.59633 52.4731 6.59327 52.6536C6.59319 52.6583 6.59312 52.6628 6.59306 52.667C6.58311 54.4797 6.58501 56.29 6.58691 58.1059C6.58768 58.8351 6.58844 59.5651 6.58844 60.2966C6.58844 60.5789 6.58873 60.8625 6.58902 61.1469C6.58989 61.9981 6.59077 62.8572 6.58391 63.7142L1.49999 45.5691ZM1.49999 45.5691V28.914H1.50001L1.49997 28.9058C1.49532 28.0628 1.49532 27.2238 1.49532 26.38L1.49531 26.3768C1.49344 25.4916 1.68271 24.8247 1.99795 24.3119C2.31095 23.8029 2.80905 23.3464 3.58989 22.977L3.5906 22.9767C4.02697 22.7699 4.535 22.6714 5.12115 22.6714L5.12381 22.6714C8.13581 22.6661 11.1435 22.6668 14.1529 22.6676C16.4114 22.6682 18.6708 22.6688 20.9338 22.6667C21.3029 22.6668 21.6758 22.7396 22.1606 22.8597C19.8946 23.8486 18.1918 25.5283 17.03 27.7817L17.029 27.7837C16.1574 29.4804 15.9147 31.2643 15.9147 32.975L15.9147 32.977C15.9241 40.0411 15.9334 47.1006 15.9054 54.1594V54.1653C15.9054 54.3552 15.9019 54.5621 15.8982 54.7813C15.8847 55.5899 15.8683 56.5663 16.0128 57.4739L16.0129 57.4746C16.3557 59.6205 17.2493 61.6273 18.8622 63.2624C18.8663 63.2679 18.8707 63.2737 18.8752 63.2795C18.9032 63.3159 18.9616 63.3907 19.0415 63.4719C19.1229 63.5546 19.2496 63.668 19.4255 63.7672L20.1622 62.4606L19.4215 63.765C19.4565 63.7849 19.4778 63.8004 19.4895 63.8099C19.4954 63.8147 19.4992 63.8182 19.5015 63.8204C19.5027 63.8216 19.5035 63.8224 19.5041 63.823L1.49999 45.5691Z" stroke="white" stroke-width="3" stroke-linecap="round"/>
<path d="M44.7119 14.2348C44.6958 19.3723 40.5861 23.4163 35.5164 23.4002L35.5164 23.4002L35.5058 23.4002C30.3645 23.4203 26.2652 19.2888 26.2974 14.1458L26.2974 14.1447C26.3256 9.01683 30.3776 4.95116 35.5473 4.97102C40.6689 4.99556 44.728 9.04947 44.7119 14.2348ZM44.7119 14.2348L46.2119 14.2395M44.7119 14.2348L46.2119 14.2395M46.2119 14.2395C46.2306 8.22526 41.5019 3.49914 35.5537 3.47103L24.7974 14.1364C24.76 20.1085 29.5307 24.9236 35.5116 24.9002C41.4085 24.9189 46.1932 20.2069 46.2119 14.2395Z" stroke="white" stroke-width="3" stroke-linecap="round"/>
<path d="M13.0078 17.9479C8.65769 17.9361 4.94023 14.2642 5.04134 9.91341L5.04206 9.88247L5.0415 9.85153C4.96346 5.52117 8.58408 1.84668 13.0131 1.84668L13.0144 1.84668C17.4692 1.84273 21.053 5.4196 21.0732 9.87495C21.0887 14.3722 17.3864 17.9598 13.0078 17.9479ZM13.0078 17.9479L13.0037 19.4479L13.0078 17.9479Z" stroke="white" stroke-width="3" stroke-linecap="round"/>
<path d="M58.1249 17.5919L58.1375 17.592C58.5271 17.5959 59.0304 17.567 59.5087 17.4597L59.5127 17.4588C62.14 16.8767 64.0006 15.4366 65.2176 13.0287L65.2287 13.0069L65.2372 12.9913L65.2376 12.9907L65.2377 12.9905L65.2379 12.9901L65.2461 12.9742C65.2553 12.9564 65.2712 12.925 65.2923 12.8808C65.3347 12.7925 65.3978 12.6542 65.4704 12.4737C65.6164 12.1107 65.7961 11.5881 65.9251 10.9651C66.1834 9.71695 66.2191 8.16809 65.4938 6.67371C65.4712 6.63146 65.456 6.59885 65.4484 6.58226L65.4478 6.58101L65.4293 6.54376L65.4062 6.48588C65.2954 6.20826 65.1901 5.97066 65.0722 5.75523C62.9063 1.8028 58.0915 0.36305 54.1734 2.46445L58.1249 17.5919ZM58.1249 17.5919L58.1122 17.592M58.1249 17.5919L58.1122 17.592M58.1122 17.592C54.5825 17.6159 51.6065 15.5429 50.4567 12.4027L50.4561 12.4009M58.1122 17.592L50.4561 12.4009M50.4561 12.4009C49.0552 8.58975 50.5378 4.41724 54.1729 2.46477L50.4561 12.4009Z" stroke="white" stroke-width="3" stroke-linecap="round"/>
<path d="M44.6862 28.3627L44.684 28.3627C38.5567 28.344 32.4294 28.344 26.3021 28.3627L44.6862 28.3627ZM44.6862 28.3627C46.8141 28.366 48.6215 30.1716 48.6322 32.3256M44.6862 28.3627L48.6415 55.8129C48.6345 52.9179 48.6354 50.0222 48.6363 47.1289C48.6366 46.1642 48.6369 45.1997 48.6369 44.2355C48.6369 43.0985 48.6376 41.9623 48.6384 40.8268C48.6403 37.9911 48.6422 35.1591 48.6322 32.3256M22.3864 32.24L22.3864 32.2405C22.3584 40.2372 22.3584 48.2339 22.3864 56.2306L22.3864 56.2309C22.3931 58.231 24.1368 59.9998 26.142 60.0671L26.1441 60.0671C26.421 60.0768 27.0959 60.1251 27.6042 60.6864C28.0898 61.2226 28.0917 61.8744 28.0917 62.0908V62.102H28.0916C28.0817 63.4332 28.0836 64.7611 28.0855 66.0967C28.0862 66.6335 28.087 67.1715 28.087 67.7116C28.087 69.8476 28.0858 71.9835 28.0847 74.1189V74.1201L28.0847 74.1215C28.0835 76.257 28.0823 78.392 28.0823 80.5269C28.0823 81.4787 28.3997 82.2049 28.8586 82.686C29.3132 83.1626 29.9849 83.4822 30.8655 83.4908C30.866 83.4908 30.8665 83.4908 30.867 83.4908L22.3864 32.24ZM22.3864 32.24C22.3931 30.1702 24.2061 28.3696 26.3019 28.3627L22.3864 32.24ZM48.6322 32.3256C48.6322 32.3253 48.6322 32.3251 48.6322 32.3248L50.1322 32.3195L48.6322 32.3266C48.6322 32.3263 48.6322 32.3259 48.6322 32.3256Z" stroke="white" stroke-width="3" stroke-linecap="round"/>
</svg>
